<svg id="svg" xmlns="http://www.w3.org/2000/svg" xmlns:xlink="http://www.w3.org/1999/xlink" width="512" height="512" viewBox="0, 0, 512,512"><g id="svgg"><path id="path0" d="M233.452 0.181 C 233.300 0.338,231.053 0.506,228.460 0.553 C 225.866 0.600,223.744 0.822,223.744 1.045 C 223.744 1.269,222.189 1.581,220.288 1.739 C 212.490 2.386,210.432 2.674,210.432 3.117 C 210.432 3.374,209.165 3.584,207.616 3.584 C 206.067 3.584,204.800 3.814,204.800 4.096 C 204.800 4.378,203.878 4.608,202.752 4.608 C 201.626 4.608,200.704 4.838,200.704 5.120 C 200.704 5.402,199.552 5.632,198.144 5.632 C 196.736 5.632,195.584 5.862,195.584 6.144 C 195.584 6.426,194.662 6.656,193.536 6.656 C 192.410 6.656,191.488 6.886,191.488 7.168 C 191.488 7.450,190.682 7.680,189.696 7.680 C 188.710 7.680,187.904 7.910,187.904 8.192 C 187.904 8.474,187.098 8.704,186.112 8.704 C 185.126 8.704,184.320 8.934,184.320 9.216 C 184.320 9.498,183.514 9.728,182.528 9.728 C 181.542 9.728,180.736 9.933,180.736 10.184 C 180.736 10.570,179.330 10.936,176.256 11.349 C 175.904 11.396,175.616 11.576,175.616 11.750 C 175.616 11.923,174.995 12.116,174.237 12.179 C 173.478 12.242,172.729 12.465,172.573 12.674 C 172.416 12.884,171.712 13.137,171.008 13.237 C 170.304 13.336,169.613 13.567,169.472 13.749 C 169.240 14.049,168.621 14.262,167.168 14.542 C 166.886 14.597,166.168 14.910,165.571 15.239 C 164.975 15.567,164.341 15.690,164.163 15.513 C 163.985 15.335,163.840 15.458,163.840 15.787 C 163.840 16.115,163.386 16.384,162.832 16.384 C 162.277 16.384,161.003 16.845,160.000 17.408 C 158.997 17.971,157.830 18.432,157.406 18.432 C 156.983 18.432,156.068 18.804,155.374 19.259 C 154.680 19.714,154.108 19.886,154.104 19.643 C 154.100 19.399,153.927 19.430,153.720 19.712 C 153.178 20.449,151.178 21.504,150.322 21.504 C 149.919 21.504,149.509 21.745,149.411 22.039 C 149.313 22.333,148.718 22.612,148.088 22.660 C 147.459 22.707,146.944 22.927,146.944 23.149 C 146.944 23.371,146.620 23.552,146.224 23.552 C 145.287 23.552,141.336 25.604,140.064 26.752 C 139.518 27.245,138.538 27.648,137.887 27.648 C 137.237 27.648,136.704 27.878,136.704 28.160 C 136.704 28.442,136.243 28.672,135.680 28.672 C 135.117 28.672,134.656 28.902,134.656 29.184 C 134.656 29.466,134.354 29.696,133.985 29.696 C 133.615 29.696,132.818 30.157,132.214 30.720 C 131.609 31.283,130.788 31.744,130.388 31.744 C 129.988 31.744,129.375 32.090,129.024 32.512 C 128.673 32.934,127.954 33.280,127.425 33.280 C 126.897 33.280,126.464 33.510,126.464 33.792 C 126.464 34.074,125.990 34.304,125.410 34.304 C 124.830 34.304,124.498 34.534,124.672 34.816 C 124.846 35.098,124.605 35.328,124.136 35.328 C 123.667 35.328,122.411 36.019,121.344 36.864 C 120.277 37.709,118.996 38.400,118.497 38.400 C 117.998 38.400,117.739 38.550,117.923 38.733 C 118.353 39.163,116.718 40.410,115.697 40.432 C 115.266 40.441,114.582 40.909,114.176 41.472 C 113.770 42.035,113.079 42.496,112.640 42.496 C 112.201 42.496,111.510 42.957,111.104 43.520 C 110.698 44.083,110.007 44.544,109.568 44.544 C 109.129 44.544,108.438 45.005,108.032 45.568 C 107.626 46.131,106.999 46.592,106.639 46.592 C 106.279 46.592,105.984 46.822,105.984 47.104 C 105.984 47.386,105.689 47.616,105.329 47.616 C 104.969 47.616,104.342 48.077,103.936 48.640 C 103.530 49.203,102.880 49.664,102.492 49.664 C 102.104 49.664,101.141 50.355,100.352 51.200 C 99.563 52.045,98.650 52.736,98.324 52.736 C 97.998 52.736,97.874 52.966,98.048 53.248 C 98.222 53.530,98.030 53.760,97.620 53.760 C 97.211 53.760,96.149 54.439,95.260 55.270 C 94.371 56.100,93.199 56.921,92.656 57.093 C 92.113 57.265,91.722 57.565,91.786 57.759 C 91.851 57.953,91.722 58.161,91.499 58.220 C 91.276 58.279,90.200 59.259,89.107 60.396 C 88.014 61.533,86.891 62.464,86.611 62.464 C 85.868 62.464,76.287 72.021,76.658 72.391 C 76.830 72.563,76.602 72.704,76.152 72.704 C 75.701 72.704,75.190 73.153,75.016 73.702 C 74.842 74.251,74.251 74.842,73.702 75.016 C 73.153 75.190,72.704 75.701,72.704 76.152 C 72.704 76.602,72.563 76.830,72.391 76.658 C 72.021 76.287,62.464 85.868,62.464 86.611 C 62.464 86.891,61.533 88.014,60.396 89.107 C 59.259 90.200,58.279 91.276,58.220 91.499 C 58.161 91.722,57.953 91.851,57.759 91.786 C 57.565 91.722,57.265 92.113,57.093 92.656 C 56.921 93.199,56.100 94.371,55.270 95.260 C 54.439 96.149,53.760 97.211,53.760 97.620 C 53.760 98.030,53.530 98.222,53.248 98.048 C 52.966 97.874,52.736 97.998,52.736 98.324 C 52.736 98.650,52.045 99.563,51.200 100.352 C 50.355 101.141,49.664 102.104,49.664 102.492 C 49.664 102.880,49.203 103.530,48.640 103.936 C 48.077 104.342,47.616 104.969,47.616 105.329 C 47.616 105.689,47.386 105.984,47.104 105.984 C 46.822 105.984,46.592 106.279,46.592 106.639 C 46.592 106.999,46.131 107.626,45.568 108.032 C 45.005 108.438,44.544 109.129,44.544 109.568 C 44.544 110.007,44.083 110.698,43.520 111.104 C 42.957 111.510,42.496 112.201,42.496 112.640 C 42.496 113.079,42.035 113.770,41.472 114.176 C 40.909 114.582,40.441 115.266,40.432 115.697 C 40.410 116.718,39.163 118.353,38.733 117.923 C 38.550 117.739,38.400 117.998,38.400 118.497 C 38.400 118.996,37.709 120.277,36.864 121.344 C 36.019 122.411,35.328 123.667,35.328 124.136 C 35.328 124.605,35.098 124.846,34.816 124.672 C 34.534 124.498,34.304 124.830,34.304 125.410 C 34.304 125.990,34.074 126.464,33.792 126.464 C 33.510 126.464,33.280 126.897,33.280 127.425 C 33.280 127.954,32.934 128.673,32.512 129.024 C 32.090 129.375,31.744 129.988,31.744 130.388 C 31.744 130.788,31.283 131.609,30.720 132.214 C 30.157 132.818,29.696 133.615,29.696 133.985 C 29.696 134.354,29.466 134.656,29.184 134.656 C 28.902 134.656,28.672 135.117,28.672 135.680 C 28.672 136.243,28.442 136.704,28.160 136.704 C 27.878 136.704,27.648 137.237,27.648 137.887 C 27.648 138.538,27.245 139.518,26.752 140.064 C 25.604 141.336,23.552 145.287,23.552 146.224 C 23.552 146.620,23.371 146.944,23.149 146.944 C 22.927 146.944,22.707 147.459,22.660 148.088 C 22.612 148.718,22.333 149.313,22.039 149.411 C 21.745 149.509,21.504 149.919,21.504 150.322 C 21.504 151.178,20.449 153.178,19.712 153.720 C 19.430 153.927,19.399 154.100,19.643 154.104 C 19.886 154.108,19.714 154.680,19.259 155.374 C 18.804 156.068,18.432 156.983,18.432 157.406 C 18.432 157.830,17.971 158.997,17.408 160.000 C 16.845 161.003,16.384 162.277,16.384 162.832 C 16.384 163.386,16.115 163.840,15.787 163.840 C 15.458 163.840,15.335 163.985,15.513 164.163 C 15.690 164.341,15.567 164.975,15.239 165.571 C 14.910 166.168,14.597 166.886,14.542 167.168 C 14.262 168.621,14.049 169.240,13.749 169.472 C 13.567 169.613,13.336 170.304,13.237 171.008 C 13.137 171.712,12.884 172.416,12.674 172.573 C 12.465 172.729,12.242 173.478,12.179 174.237 C 12.116 174.995,11.923 175.616,11.750 175.616 C 11.576 175.616,11.396 175.904,11.349 176.256 C 10.936 179.330,10.570 180.736,10.184 180.736 C 9.933 180.736,9.728 181.542,9.728 182.528 C 9.728 183.514,9.498 184.320,9.216 184.320 C 8.934 184.320,8.704 185.126,8.704 186.112 C 8.704 187.098,8.474 187.904,8.192 187.904 C 7.910 187.904,7.680 188.710,7.680 189.696 C 7.680 190.682,7.450 191.488,7.168 191.488 C 6.886 191.488,6.656 192.410,6.656 193.536 C 6.656 194.662,6.426 195.584,6.144 195.584 C 5.862 195.584,5.632 196.736,5.632 198.144 C 5.632 199.552,5.402 200.704,5.120 200.704 C 4.838 200.704,4.608 201.626,4.608 202.752 C 4.608 203.878,4.378 204.800,4.096 204.800 C 3.814 204.800,3.584 206.067,3.584 207.616 C 3.584 209.165,3.374 210.432,3.117 210.432 C 2.674 210.432,2.386 212.490,1.739 220.288 C 1.581 222.189,1.269 223.744,1.045 223.744 C 0.432 223.744,0.256 230.941,0.256 256.000 C 0.256 281.059,0.432 288.256,1.045 288.256 C 1.269 288.256,1.581 289.811,1.739 291.712 C 2.386 299.510,2.674 301.568,3.117 301.568 C 3.374 301.568,3.584 302.835,3.584 304.384 C 3.584 305.933,3.814 307.200,4.096 307.200 C 4.378 307.200,4.608 308.122,4.608 309.248 C 4.608 310.374,4.838 311.296,5.120 311.296 C 5.402 311.296,5.632 312.448,5.632 313.856 C 5.632 315.264,5.862 316.416,6.144 316.416 C 6.426 316.416,6.656 317.338,6.656 318.464 C 6.656 319.590,6.886 320.512,7.168 320.512 C 7.450 320.512,7.680 321.318,7.680 322.304 C 7.680 323.290,7.910 324.096,8.192 324.096 C 8.474 324.096,8.704 324.902,8.704 325.888 C 8.704 326.874,8.934 327.680,9.216 327.680 C 9.498 327.680,9.728 328.486,9.728 329.472 C 9.728 330.458,9.933 331.264,10.184 331.264 C 10.570 331.264,10.936 332.670,11.349 335.744 C 11.396 336.096,11.576 336.384,11.750 336.384 C 11.923 336.384,12.116 337.005,12.179 337.763 C 12.242 338.522,12.465 339.271,12.674 339.427 C 12.884 339.584,13.137 340.288,13.237 340.992 C 13.336 341.696,13.567 342.387,13.749 342.528 C 14.049 342.760,14.262 343.379,14.542 344.832 C 14.597 345.114,14.895 345.805,15.206 346.368 C 15.517 346.931,15.779 347.507,15.788 347.648 C 15.831 348.269,16.545 350.105,17.450 351.920 C 17.990 353.003,18.432 354.221,18.432 354.626 C 18.432 355.032,18.804 355.932,19.259 356.626 C 19.714 357.320,19.886 357.892,19.643 357.896 C 19.399 357.900,19.430 358.073,19.712 358.280 C 20.449 358.822,21.504 360.822,21.504 361.678 C 21.504 362.081,21.745 362.491,22.039 362.589 C 22.333 362.687,22.612 363.282,22.660 363.912 C 22.707 364.541,22.927 365.056,23.149 365.056 C 23.371 365.056,23.552 365.380,23.552 365.776 C 23.552 366.713,25.604 370.664,26.752 371.936 C 27.245 372.482,27.648 373.462,27.648 374.113 C 27.648 374.763,27.878 375.296,28.160 375.296 C 28.442 375.296,28.672 375.757,28.672 376.320 C 28.672 376.883,28.902 377.344,29.184 377.344 C 29.466 377.344,29.696 377.646,29.696 378.015 C 29.696 378.385,30.157 379.182,30.720 379.786 C 31.283 380.391,31.744 381.212,31.744 381.612 C 31.744 382.012,32.090 382.625,32.512 382.976 C 32.934 383.327,33.280 384.046,33.280 384.575 C 33.280 385.103,33.510 385.536,33.792 385.536 C 34.074 385.536,34.304 386.010,34.304 386.590 C 34.304 387.170,34.534 387.502,34.816 387.328 C 35.098 387.154,35.328 387.395,35.328 387.864 C 35.328 388.333,36.019 389.589,36.864 390.656 C 37.709 391.723,38.400 393.004,38.400 393.503 C 38.400 394.002,38.550 394.261,38.733 394.077 C 39.163 393.647,40.410 395.282,40.432 396.303 C 40.441 396.734,40.909 397.418,41.472 397.824 C 42.035 398.230,42.496 398.921,42.496 399.360 C 42.496 399.799,42.957 400.490,43.520 400.896 C 44.083 401.302,44.544 401.993,44.544 402.432 C 44.544 402.871,45.005 403.562,45.568 403.968 C 46.131 404.374,46.592 405.001,46.592 405.361 C 46.592 405.721,46.822 406.016,47.104 406.016 C 47.386 406.016,47.616 406.311,47.616 406.671 C 47.616 407.031,48.077 407.658,48.640 408.064 C 49.203 408.470,49.664 409.120,49.664 409.508 C 49.664 409.896,50.355 410.859,51.200 411.648 C 52.045 412.437,52.736 413.350,52.736 413.676 C 52.736 414.002,52.966 414.126,53.248 413.952 C 53.530 413.778,53.760 413.970,53.760 414.380 C 53.760 414.789,54.452 415.897,55.298 416.842 C 57.617 419.433,57.815 419.710,57.547 419.978 C 57.411 420.114,57.667 420.367,58.117 420.539 C 58.566 420.711,58.802 420.640,58.641 420.380 C 58.481 420.120,58.686 419.028,59.098 417.954 C 59.510 416.879,60.325 414.272,60.910 412.160 C 62.643 405.902,63.143 404.252,63.473 403.712 C 63.646 403.430,64.081 402.278,64.442 401.152 C 65.393 398.181,67.044 393.799,68.155 391.302 C 68.686 390.108,69.120 389.019,69.120 388.882 C 69.120 388.396,72.322 381.599,75.520 375.296 C 88.840 349.047,109.441 324.505,133.376 306.370 C 137.302 303.396,151.291 293.888,151.742 293.888 C 151.862 293.888,153.508 292.947,155.400 291.798 C 158.463 289.937,171.394 283.469,176.128 281.430 C 180.125 279.709,186.331 277.340,189.952 276.154 C 198.060 273.497,197.909 273.905,192.350 269.710 C 172.545 254.763,157.197 230.975,152.826 208.453 C 152.409 206.303,151.845 203.392,151.574 201.984 C 149.591 191.685,149.747 179.697,152.049 165.632 C 157.127 134.602,180.093 104.573,209.664 90.299 C 269.661 61.339,341.312 94.015,358.205 158.041 C 362.020 172.502,362.869 189.298,360.426 201.984 C 360.155 203.392,359.591 206.303,359.174 208.453 C 354.803 230.975,339.455 254.763,319.650 269.710 C 314.091 273.905,313.940 273.497,322.048 276.154 C 369.674 291.757,413.414 329.703,436.620 375.552 C 439.711 381.659,442.880 388.407,442.880 388.882 C 442.880 389.019,443.314 390.108,443.845 391.302 C 444.956 393.799,446.607 398.181,447.558 401.152 C 447.919 402.278,448.354 403.430,448.527 403.712 C 448.857 404.252,449.357 405.902,451.090 412.160 C 451.675 414.272,452.490 416.879,452.902 417.954 C 453.314 419.028,453.519 420.120,453.359 420.380 C 453.198 420.640,453.434 420.711,453.883 420.539 C 454.333 420.367,454.589 420.114,454.453 419.978 C 454.185 419.710,454.383 419.433,456.702 416.842 C 457.548 415.897,458.240 414.789,458.240 414.380 C 458.240 413.970,458.470 413.778,458.752 413.952 C 459.034 414.126,459.264 414.002,459.264 413.676 C 459.264 413.350,459.955 412.437,460.800 411.648 C 461.645 410.859,462.336 409.896,462.336 409.508 C 462.336 409.120,462.797 408.470,463.360 408.064 C 463.923 407.658,464.384 407.031,464.384 406.671 C 464.384 406.311,464.614 406.016,464.896 406.016 C 465.178 406.016,465.408 405.721,465.408 405.361 C 465.408 405.001,465.869 404.374,466.432 403.968 C 466.995 403.562,467.456 402.871,467.456 402.432 C 467.456 401.993,467.917 401.302,468.480 400.896 C 469.043 400.490,469.504 399.799,469.504 399.360 C 469.504 398.921,469.965 398.230,470.528 397.824 C 471.091 397.418,471.559 396.734,471.568 396.303 C 471.590 395.282,472.837 393.647,473.267 394.077 C 473.450 394.261,473.600 394.002,473.600 393.503 C 473.600 393.004,474.291 391.723,475.136 390.656 C 475.981 389.589,476.672 388.333,476.672 387.864 C 476.672 387.395,476.902 387.154,477.184 387.328 C 477.466 387.502,477.696 387.170,477.696 386.590 C 477.696 386.010,477.926 385.536,478.208 385.536 C 478.490 385.536,478.720 385.103,478.720 384.575 C 478.720 384.046,479.066 383.327,479.488 382.976 C 479.910 382.625,480.256 382.012,480.256 381.612 C 480.256 381.212,480.717 380.391,481.280 379.786 C 481.843 379.182,482.304 378.385,482.304 378.015 C 482.304 377.646,482.534 377.344,482.816 377.344 C 483.098 377.344,483.328 376.883,483.328 376.320 C 483.328 375.757,483.558 375.296,483.840 375.296 C 484.122 375.296,484.352 374.763,484.352 374.113 C 484.352 373.462,484.755 372.482,485.248 371.936 C 486.396 370.664,488.448 366.713,488.448 365.776 C 488.448 365.380,488.629 365.056,488.851 365.056 C 489.073 365.056,489.293 364.541,489.340 363.912 C 489.388 363.282,489.667 362.687,489.961 362.589 C 490.255 362.491,490.496 362.081,490.496 361.678 C 490.496 360.822,491.551 358.822,492.288 358.280 C 492.570 358.073,492.601 357.900,492.357 357.896 C 492.114 357.892,492.286 357.320,492.741 356.626 C 493.196 355.932,493.568 355.017,493.568 354.594 C 493.568 354.170,494.029 353.003,494.592 352.000 C 495.155 350.997,495.616 349.723,495.616 349.168 C 495.616 348.614,495.885 348.160,496.213 348.160 C 496.542 348.160,496.665 348.015,496.487 347.837 C 496.310 347.659,496.433 347.025,496.761 346.429 C 497.090 345.832,497.403 345.114,497.458 344.832 C 497.738 343.379,497.951 342.760,498.251 342.528 C 498.433 342.387,498.664 341.696,498.763 340.992 C 498.863 340.288,499.116 339.584,499.326 339.427 C 499.535 339.271,499.758 338.522,499.821 337.763 C 499.884 337.005,500.077 336.384,500.250 336.384 C 500.424 336.384,500.604 336.096,500.651 335.744 C 501.064 332.670,501.430 331.264,501.816 331.264 C 502.067 331.264,502.272 330.458,502.272 329.472 C 502.272 328.486,502.502 327.680,502.784 327.680 C 503.066 327.680,503.296 326.874,503.296 325.888 C 503.296 324.902,503.526 324.096,503.808 324.096 C 504.090 324.096,504.320 323.290,504.320 322.304 C 504.320 321.318,504.550 320.512,504.832 320.512 C 505.114 320.512,505.344 319.590,505.344 318.464 C 505.344 317.338,505.574 316.416,505.856 316.416 C 506.138 316.416,506.368 315.264,506.368 313.856 C 506.368 312.448,506.598 311.296,506.880 311.296 C 507.162 311.296,507.392 310.374,507.392 309.248 C 507.392 308.122,507.622 307.200,507.904 307.200 C 508.186 307.200,508.416 305.933,508.416 304.384 C 508.416 302.835,508.626 301.568,508.883 301.568 C 509.326 301.568,509.614 299.510,510.261 291.712 C 510.419 289.811,510.731 288.256,510.955 288.256 C 511.568 288.256,511.744 281.059,511.744 256.000 C 511.744 230.941,511.568 223.744,510.955 223.744 C 510.731 223.744,510.419 222.189,510.261 220.288 C 509.614 212.490,509.326 210.432,508.883 210.432 C 508.626 210.432,508.416 209.165,508.416 207.616 C 508.416 206.067,508.186 204.800,507.904 204.800 C 507.622 204.800,507.392 203.878,507.392 202.752 C 507.392 201.626,507.162 200.704,506.880 200.704 C 506.598 200.704,506.368 199.552,506.368 198.144 C 506.368 196.736,506.138 195.584,505.856 195.584 C 505.574 195.584,505.344 194.662,505.344 193.536 C 505.344 192.410,505.114 191.488,504.832 191.488 C 504.550 191.488,504.320 190.682,504.320 189.696 C 504.320 188.710,504.090 187.904,503.808 187.904 C 503.526 187.904,503.296 187.098,503.296 186.112 C 503.296 185.126,503.066 184.320,502.784 184.320 C 502.502 184.320,502.272 183.514,502.272 182.528 C 502.272 181.542,502.067 180.736,501.816 180.736 C 501.430 180.736,501.064 179.330,500.651 176.256 C 500.604 175.904,500.424 175.616,500.250 175.616 C 500.077 175.616,499.884 174.995,499.821 174.237 C 499.758 173.478,499.535 172.729,499.326 172.573 C 499.116 172.416,498.863 171.712,498.763 171.008 C 498.664 170.304,498.433 169.613,498.251 169.472 C 497.951 169.240,497.738 168.621,497.458 167.168 C 497.403 166.886,497.043 166.080,496.657 165.376 C 496.271 164.672,495.965 163.981,495.976 163.840 C 496.018 163.339,495.518 162.021,494.550 160.080 C 494.010 158.997,493.568 157.779,493.568 157.374 C 493.568 156.968,493.196 156.068,492.741 155.374 C 492.286 154.680,492.114 154.108,492.357 154.104 C 492.601 154.100,492.570 153.927,492.288 153.720 C 491.551 153.178,490.496 151.178,490.496 150.322 C 490.496 149.919,490.255 149.509,489.961 149.411 C 489.667 149.313,489.388 148.718,489.340 148.088 C 489.293 147.459,489.073 146.944,488.851 146.944 C 488.629 146.944,488.448 146.620,488.448 146.224 C 488.448 145.287,486.396 141.336,485.248 140.064 C 484.755 139.518,484.352 138.538,484.352 137.887 C 484.352 137.237,484.122 136.704,483.840 136.704 C 483.558 136.704,483.328 136.243,483.328 135.680 C 483.328 135.117,483.098 134.656,482.816 134.656 C 482.534 134.656,482.304 134.354,482.304 133.985 C 482.304 133.615,481.843 132.818,481.280 132.214 C 480.717 131.609,480.256 130.788,480.256 130.388 C 480.256 129.988,479.910 129.375,479.488 129.024 C 479.066 128.673,478.720 127.954,478.720 127.425 C 478.720 126.897,478.490 126.464,478.208 126.464 C 477.926 126.464,477.696 125.990,477.696 125.410 C 477.696 124.830,477.466 124.498,477.184 124.672 C 476.902 124.846,476.672 124.605,476.672 124.136 C 476.672 123.667,475.981 122.411,475.136 121.344 C 474.291 120.277,473.600 118.996,473.600 118.497 C 473.600 117.998,473.450 117.739,473.267 117.923 C 472.837 118.353,471.590 116.718,471.568 115.697 C 471.559 115.266,471.091 114.582,470.528 114.176 C 469.965 113.770,469.504 113.079,469.504 112.640 C 469.504 112.201,469.043 111.510,468.480 111.104 C 467.917 110.698,467.456 110.007,467.456 109.568 C 467.456 109.129,466.995 108.438,466.432 108.032 C 465.869 107.626,465.408 106.999,465.408 106.639 C 465.408 106.279,465.178 105.984,464.896 105.984 C 464.614 105.984,464.384 105.689,464.384 105.329 C 464.384 104.969,463.923 104.342,463.360 103.936 C 462.797 103.530,462.336 102.880,462.336 102.492 C 462.336 102.104,461.645 101.141,460.800 100.352 C 459.955 99.563,459.264 98.650,459.264 98.324 C 459.264 97.998,459.034 97.874,458.752 98.048 C 458.470 98.222,458.240 98.030,458.240 97.620 C 458.240 97.211,457.561 96.149,456.730 95.260 C 455.900 94.371,455.079 93.199,454.907 92.656 C 454.735 92.113,454.435 91.722,454.241 91.786 C 454.047 91.851,453.839 91.722,453.780 91.499 C 453.721 91.276,452.741 90.200,451.604 89.107 C 450.467 88.014,449.536 86.891,449.536 86.611 C 449.536 85.868,439.979 76.287,439.609 76.658 C 439.437 76.830,439.296 76.602,439.296 76.152 C 439.296 75.701,438.847 75.190,438.298 75.016 C 437.749 74.842,437.158 74.251,436.984 73.702 C 436.810 73.153,436.299 72.704,435.848 72.704 C 435.398 72.704,435.170 72.563,435.342 72.391 C 435.713 72.021,426.132 62.464,425.389 62.464 C 425.109 62.464,423.986 61.533,422.893 60.396 C 421.800 59.259,420.724 58.314,420.501 58.297 C 420.278 58.280,420.149 58.072,420.214 57.836 C 420.278 57.600,419.887 57.265,419.344 57.093 C 418.801 56.921,417.629 56.100,416.740 55.270 C 415.851 54.439,414.789 53.760,414.380 53.760 C 413.970 53.760,413.778 53.530,413.952 53.248 C 414.126 52.966,414.002 52.736,413.676 52.736 C 413.350 52.736,412.437 52.045,411.648 51.200 C 410.859 50.355,409.896 49.664,409.508 49.664 C 409.120 49.664,408.470 49.203,408.064 48.640 C 407.658 48.077,407.031 47.616,406.671 47.616 C 406.311 47.616,406.016 47.386,406.016 47.104 C 406.016 46.822,405.721 46.592,405.361 46.592 C 405.001 46.592,404.374 46.131,403.968 45.568 C 403.562 45.005,402.871 44.544,402.432 44.544 C 401.993 44.544,401.302 44.083,400.896 43.520 C 400.490 42.957,399.799 42.496,399.360 42.496 C 398.921 42.496,398.230 42.035,397.824 41.472 C 397.418 40.909,396.734 40.441,396.303 40.432 C 395.282 40.410,393.647 39.163,394.077 38.733 C 394.261 38.550,394.002 38.400,393.503 38.400 C 393.004 38.400,391.723 37.709,390.656 36.864 C 389.589 36.019,388.333 35.328,387.864 35.328 C 387.395 35.328,387.154 35.098,387.328 34.816 C 387.502 34.534,387.170 34.304,386.590 34.304 C 386.010 34.304,385.536 34.074,385.536 33.792 C 385.536 33.510,385.103 33.280,384.575 33.280 C 384.046 33.280,383.327 32.934,382.976 32.512 C 382.625 32.090,382.012 31.744,381.612 31.744 C 381.212 31.744,380.391 31.283,379.786 30.720 C 379.182 30.157,378.385 29.696,378.015 29.696 C 377.646 29.696,377.344 29.466,377.344 29.184 C 377.344 28.902,376.883 28.672,376.320 28.672 C 375.757 28.672,375.296 28.442,375.296 28.160 C 375.296 27.878,374.763 27.648,374.113 27.648 C 373.462 27.648,372.482 27.245,371.936 26.752 C 370.664 25.604,366.713 23.552,365.776 23.552 C 365.380 23.552,365.056 23.371,365.056 23.149 C 365.056 22.927,364.541 22.707,363.912 22.660 C 363.282 22.612,362.687 22.333,362.589 22.039 C 362.491 21.745,362.081 21.504,361.678 21.504 C 360.822 21.504,358.822 20.449,358.280 19.712 C 358.073 19.430,357.900 19.399,357.896 19.643 C 357.892 19.886,357.320 19.714,356.626 19.259 C 355.932 18.804,355.032 18.432,354.626 18.432 C 354.221 18.432,353.003 17.990,351.920 17.450 C 350.077 16.531,349.138 16.166,347.904 15.887 C 347.622 15.823,346.931 15.517,346.368 15.206 C 345.805 14.895,345.114 14.597,344.832 14.542 C 343.379 14.262,342.760 14.049,342.528 13.749 C 342.387 13.567,341.696 13.336,340.992 13.237 C 340.288 13.137,339.584 12.884,339.427 12.674 C 339.271 12.465,338.522 12.242,337.763 12.179 C 337.005 12.116,336.384 11.923,336.384 11.750 C 336.384 11.576,336.096 11.396,335.744 11.349 C 332.670 10.936,331.264 10.570,331.264 10.184 C 331.264 9.933,330.458 9.728,329.472 9.728 C 328.486 9.728,327.680 9.498,327.680 9.216 C 327.680 8.934,326.874 8.704,325.888 8.704 C 324.902 8.704,324.096 8.474,324.096 8.192 C 324.096 7.910,323.290 7.680,322.304 7.680 C 321.318 7.680,320.512 7.450,320.512 7.168 C 320.512 6.886,319.590 6.656,318.464 6.656 C 317.338 6.656,316.416 6.426,316.416 6.144 C 316.416 5.862,315.264 5.632,313.856 5.632 C 312.448 5.632,311.296 5.402,311.296 5.120 C 311.296 4.838,310.374 4.608,309.248 4.608 C 308.122 4.608,307.200 4.378,307.200 4.096 C 307.200 3.814,305.933 3.584,304.384 3.584 C 302.835 3.584,301.568 3.374,301.568 3.117 C 301.568 2.674,299.510 2.386,291.712 1.739 C 289.811 1.581,288.256 1.255,288.256 1.014 C 288.256 0.773,287.853 0.557,287.360 0.533 C 282.079 0.283,233.658 -0.033,233.452 0.181 M80.896 443.745 C 80.896 444.436,83.443 446.977,84.117 446.959 C 84.457 446.950,84.275 446.544,83.712 446.058 C 83.149 445.572,82.285 444.757,81.792 444.247 C 81.299 443.736,80.896 443.510,80.896 443.745 M90.624 452.932 C 90.624 453.253,92.664 455.168,93.006 455.168 C 93.365 455.168,93.162 454.787,92.228 453.710 C 91.284 452.622,90.624 452.302,90.624 452.932 M419.688 453.904 C 419.182 454.599,418.859 455.168,418.970 455.168 C 419.329 455.168,421.376 453.266,421.376 452.932 C 421.376 452.233,420.564 452.701,419.688 453.904 M100.352 460.581 C 100.352 461.083,101.788 462.336,102.363 462.336 C 102.665 462.336,102.912 462.106,102.912 461.824 C 102.912 461.542,102.566 461.312,102.144 461.312 C 101.722 461.312,101.376 461.082,101.376 460.800 C 101.376 460.518,101.146 460.288,100.864 460.288 C 100.582 460.288,100.352 460.420,100.352 460.581 M410.624 460.800 C 410.624 461.082,410.278 461.312,409.856 461.312 C 409.434 461.312,409.088 461.542,409.088 461.824 C 409.088 462.569,410.070 462.451,410.917 461.605 C 411.774 460.747,411.851 460.288,411.136 460.288 C 410.854 460.288,410.624 460.518,410.624 460.800 M166.124 496.944 C 167.249 497.767,167.936 497.868,167.936 497.212 C 167.936 496.963,167.307 496.639,166.538 496.492 C 165.230 496.242,165.203 496.271,166.124 496.944 M344.320 497.152 C 344.146 497.434,344.349 497.664,344.772 497.664 C 345.194 497.664,345.682 497.434,345.856 497.152 C 346.030 496.870,345.827 496.640,345.404 496.640 C 344.982 496.640,344.494 496.870,344.320 497.152 M175.366 500.146 C 176.028 500.850,179.712 501.322,179.712 500.703 C 179.712 500.446,179.194 500.273,178.560 500.318 C 177.926 500.364,176.832 500.220,176.128 499.999 C 175.224 499.715,175.000 499.758,175.366 500.146 M333.312 500.736 C 333.312 501.377,333.855 501.377,334.848 500.736 C 335.469 500.335,335.396 500.238,334.464 500.232 C 333.830 500.228,333.312 500.454,333.312 500.736 M318.739 504.801 C 318.576 505.066,318.908 505.247,319.477 505.204 C 320.046 505.161,320.512 504.945,320.512 504.723 C 320.512 504.157,319.099 504.219,318.739 504.801 M204.800 507.794 C 204.800 508.016,205.261 508.197,205.824 508.197 C 206.387 508.197,206.848 508.016,206.848 507.794 C 206.848 507.573,206.387 507.392,205.824 507.392 C 205.261 507.392,204.800 507.573,204.800 507.794 M305.152 507.872 C 305.152 508.136,305.613 508.318,306.176 508.275 C 306.739 508.233,307.200 508.017,307.200 507.795 C 307.200 507.573,306.739 507.392,306.176 507.392 C 305.613 507.392,305.152 507.608,305.152 507.872 M216.320 509.952 C 216.494 510.234,217.372 510.460,218.270 510.456 C 219.513 510.450,219.720 510.330,219.136 509.952 C 218.121 509.296,215.914 509.296,216.320 509.952 M292.864 509.952 C 292.280 510.330,292.487 510.450,293.730 510.456 C 294.628 510.460,295.506 510.234,295.680 509.952 C 296.086 509.296,293.879 509.296,292.864 509.952 M223.744 510.982 C 223.744 511.581,225.621 511.668,225.981 511.085 C 226.118 510.863,225.671 510.635,224.987 510.578 C 224.303 510.522,223.744 510.703,223.744 510.982 " stroke="none" fill="#ecebeb" fill-rule="evenodd"></path><path id="path1" d="M248.832 79.883 C 203.769 82.870,165.276 114.527,153.795 158.041 C 149.980 172.502,149.131 189.298,151.574 201.984 C 151.845 203.392,152.409 206.303,152.826 208.453 C 157.197 230.975,172.545 254.763,192.350 269.710 C 197.909 273.905,198.060 273.497,189.952 276.154 C 180.196 279.350,163.289 287.005,155.400 291.798 C 153.508 292.947,151.862 293.888,151.742 293.888 C 151.291 293.888,137.302 303.396,133.376 306.370 C 109.441 324.505,88.840 349.047,75.520 375.296 C 72.322 381.599,69.120 388.396,69.120 388.882 C 69.120 389.019,68.685 390.108,68.153 391.302 C 66.959 393.979,65.676 397.349,64.694 400.384 C 64.284 401.651,63.751 403.149,63.509 403.712 C 62.814 405.330,62.440 406.527,61.383 410.509 C 60.840 412.557,60.021 415.322,59.563 416.653 C 58.409 420.007,58.303 421.376,59.197 421.376 C 59.604 421.376,60.086 421.779,60.269 422.272 C 60.451 422.765,61.020 423.541,61.532 423.996 C 62.045 424.451,62.468 425.258,62.472 425.788 C 62.478 426.598,62.559 426.629,62.976 425.984 C 63.249 425.562,63.505 425.389,63.544 425.600 C 63.584 425.811,63.648 426.157,63.688 426.368 C 63.854 427.256,64.617 428.028,65.059 427.754 C 65.464 427.504,65.693 428.013,65.646 429.056 C 65.631 429.380,66.692 430.361,67.200 430.493 C 67.411 430.547,67.534 430.650,67.473 430.720 C 67.228 431.001,69.914 433.461,70.272 433.283 C 70.483 433.178,70.656 433.464,70.656 433.920 C 70.656 434.376,70.852 434.627,71.091 434.480 C 71.330 434.332,71.826 434.771,72.192 435.456 C 72.558 436.141,73.019 436.602,73.216 436.480 C 73.688 436.189,75.781 438.608,75.393 438.996 C 75.228 439.161,75.352 439.296,75.667 439.296 C 76.415 439.296,78.826 441.707,78.452 442.081 C 78.176 442.358,79.168 442.567,80.038 442.416 C 80.270 442.376,80.343 442.532,80.200 442.764 C 80.057 442.995,80.151 443.519,80.410 443.928 C 80.717 444.413,80.883 444.455,80.888 444.048 C 80.892 443.705,81.704 444.165,82.691 445.071 C 83.678 445.977,84.256 446.795,83.975 446.888 C 83.395 447.082,84.654 448.512,85.406 448.512 C 85.673 448.512,86.842 449.434,88.003 450.560 C 89.164 451.686,90.351 452.608,90.642 452.608 C 90.933 452.608,91.846 453.299,92.672 454.144 C 93.498 454.989,94.425 455.680,94.733 455.680 C 95.041 455.680,95.160 455.894,94.999 456.155 C 94.837 456.416,95.112 456.761,95.609 456.922 C 96.105 457.082,97.248 457.905,98.148 458.751 C 99.048 459.596,100.143 460.288,100.580 460.288 C 101.018 460.288,101.376 460.518,101.376 460.800 C 101.376 461.082,101.671 461.312,102.031 461.312 C 102.391 461.312,103.018 461.773,103.424 462.336 C 103.830 462.899,104.514 463.364,104.945 463.368 C 105.530 463.374,105.566 463.479,105.086 463.783 C 104.649 464.061,105.015 464.415,106.233 464.893 C 107.217 465.279,108.155 466.014,108.318 466.526 C 108.496 467.089,109.104 467.456,109.859 467.456 C 110.544 467.456,111.104 467.686,111.104 467.968 C 111.104 468.250,111.463 468.480,111.902 468.480 C 112.341 468.480,112.555 468.716,112.376 469.005 C 112.198 469.293,112.242 469.496,112.474 469.456 C 113.750 469.234,114.599 469.619,114.836 470.528 C 115.017 471.220,115.535 471.552,116.432 471.552 C 117.162 471.552,117.702 471.725,117.632 471.936 C 117.397 472.641,119.793 474.624,120.880 474.624 C 121.521 474.624,122.059 475.035,122.220 475.648 C 122.367 476.211,122.908 476.672,123.421 476.672 C 123.935 476.672,124.508 476.918,124.694 477.219 C 124.879 477.520,125.354 477.642,125.748 477.491 C 126.142 477.340,126.464 477.453,126.464 477.742 C 126.464 478.032,126.700 478.123,126.989 477.944 C 127.277 477.766,127.450 477.894,127.373 478.230 C 127.295 478.565,127.683 478.915,128.234 479.006 C 129.591 479.231,131.584 480.331,131.584 480.855 C 131.584 481.089,132.105 481.280,132.741 481.280 C 133.377 481.280,134.185 481.741,134.537 482.304 C 134.892 482.873,135.731 483.328,136.423 483.328 C 137.131 483.328,138.014 483.820,138.467 484.466 C 138.933 485.132,139.264 485.312,139.264 484.900 C 139.264 484.444,139.602 484.585,140.220 485.298 C 140.747 485.905,141.782 486.400,142.524 486.400 C 143.265 486.400,143.872 486.630,143.872 486.912 C 143.872 487.194,144.198 487.424,144.597 487.424 C 144.996 487.424,145.403 487.665,145.501 487.959 C 145.599 488.253,146.194 488.532,146.824 488.580 C 147.453 488.627,147.968 488.847,147.968 489.069 C 147.968 489.291,148.544 489.472,149.248 489.472 C 149.952 489.472,150.528 489.702,150.528 489.984 C 150.528 490.266,150.887 490.496,151.326 490.496 C 151.765 490.496,151.998 490.700,151.844 490.950 C 151.689 491.200,151.849 491.394,152.198 491.382 C 153.744 491.326,154.665 491.552,154.431 491.930 C 154.292 492.155,155.200 492.642,156.449 493.010 C 157.698 493.379,158.720 493.830,158.720 494.012 C 158.720 494.436,162.479 495.616,163.832 495.616 C 164.400 495.616,164.864 495.796,164.864 496.016 C 164.864 496.237,165.437 496.464,166.138 496.522 C 166.838 496.580,167.884 497.100,168.460 497.676 C 169.037 498.253,169.741 498.582,170.025 498.407 C 170.309 498.231,170.876 498.366,171.286 498.707 C 171.696 499.047,172.032 499.154,172.032 498.944 C 172.032 498.734,172.320 498.802,172.672 499.094 C 173.024 499.386,173.485 499.645,173.696 499.668 C 173.907 499.692,174.138 499.731,174.208 499.755 C 174.744 499.933,177.150 500.229,178.304 500.257 C 179.078 500.277,179.712 500.470,179.712 500.688 C 179.712 501.283,182.145 502.272,183.606 502.272 C 184.333 502.272,184.755 502.495,184.576 502.784 C 184.385 503.093,185.073 503.296,186.308 503.296 C 187.434 503.296,188.498 503.526,188.672 503.808 C 188.846 504.090,189.532 504.320,190.196 504.320 C 190.859 504.320,191.519 504.608,191.661 504.960 C 191.868 505.472,191.927 505.472,191.960 504.960 C 191.982 504.608,192.359 504.320,192.798 504.320 C 193.237 504.320,193.454 504.550,193.280 504.832 C 193.092 505.137,193.701 505.344,194.786 505.344 C 195.788 505.344,196.608 505.517,196.608 505.728 C 196.608 505.939,197.818 506.183,199.296 506.271 C 200.774 506.358,202.061 506.646,202.155 506.911 C 202.249 507.175,203.324 507.392,204.544 507.392 C 205.764 507.392,206.839 507.602,206.933 507.858 C 207.027 508.115,208.026 508.388,209.152 508.466 C 210.278 508.543,211.430 508.773,211.712 508.976 C 211.994 509.179,213.722 509.476,215.552 509.636 C 223.000 510.286,225.057 510.593,225.743 511.155 C 226.899 512.103,285.249 511.984,286.398 511.031 C 286.870 510.639,287.405 510.466,287.586 510.647 C 287.767 510.828,287.607 510.976,287.232 510.976 C 286.857 510.976,286.697 511.124,286.878 511.305 C 287.059 511.486,287.501 511.397,287.860 511.107 C 288.580 510.524,291.386 510.039,296.448 509.620 C 298.278 509.469,300.006 509.179,300.288 508.976 C 300.570 508.773,301.722 508.541,302.848 508.461 C 303.974 508.381,305.016 508.122,305.163 507.885 C 305.310 507.648,306.739 507.401,308.340 507.336 C 309.940 507.272,311.131 507.027,310.986 506.793 C 310.842 506.559,311.601 506.365,312.674 506.360 C 314.567 506.353,318.085 505.382,318.796 504.671 C 318.989 504.478,320.016 504.320,321.079 504.320 C 322.142 504.320,323.154 504.090,323.328 503.808 C 323.502 503.526,324.566 503.296,325.692 503.296 C 326.927 503.296,327.615 503.093,327.424 502.784 C 327.244 502.493,327.683 502.272,328.443 502.272 C 329.178 502.272,330.429 501.936,331.225 501.524 C 332.020 501.113,332.815 500.921,332.991 501.098 C 333.168 501.274,333.312 501.133,333.312 500.785 C 333.312 500.436,333.830 500.201,334.464 500.262 C 335.098 500.324,336.192 500.137,336.896 499.847 C 337.600 499.557,338.325 499.407,338.507 499.513 C 338.689 499.620,339.478 499.374,340.262 498.967 C 341.046 498.561,341.876 498.345,342.107 498.488 C 342.339 498.631,342.528 498.561,342.528 498.331 C 342.528 497.818,344.775 496.842,347.008 496.386 C 347.923 496.200,348.672 495.866,348.672 495.646 C 348.672 495.426,349.306 495.347,350.080 495.471 C 351.181 495.647,351.320 495.577,350.720 495.152 C 349.949 494.606,350.571 494.379,352.634 494.454 C 352.983 494.466,353.167 494.311,353.042 494.108 C 352.917 493.906,353.945 493.432,355.328 493.056 C 356.711 492.680,357.723 492.180,357.579 491.946 C 357.337 491.554,358.238 491.325,359.802 491.382 C 360.151 491.394,360.311 491.200,360.156 490.950 C 360.002 490.700,360.235 490.496,360.674 490.496 C 361.113 490.496,361.472 490.266,361.472 489.984 C 361.472 489.702,362.048 489.472,362.752 489.472 C 363.456 489.472,364.032 489.203,364.032 488.875 C 364.032 488.546,364.177 488.423,364.355 488.601 C 364.533 488.778,365.167 488.653,365.763 488.321 C 366.360 487.990,367.027 487.770,367.246 487.832 C 367.465 487.894,367.778 487.598,367.941 487.173 C 368.104 486.748,368.819 486.400,369.531 486.400 C 370.242 486.400,371.254 485.904,371.780 485.298 C 372.398 484.585,372.736 484.444,372.736 484.900 C 372.736 485.312,373.067 485.132,373.533 484.466 C 373.986 483.820,374.869 483.328,375.577 483.328 C 376.269 483.328,377.108 482.873,377.463 482.304 C 377.815 481.741,378.623 481.280,379.259 481.280 C 379.895 481.280,380.416 481.050,380.416 480.768 C 380.416 480.486,380.877 480.256,381.440 480.256 C 382.003 480.256,382.464 480.026,382.464 479.744 C 382.464 479.462,382.810 479.232,383.232 479.232 C 383.654 479.232,384.000 478.963,384.000 478.635 C 384.000 478.306,384.137 478.175,384.305 478.342 C 384.473 478.510,385.401 478.203,386.369 477.660 C 387.336 477.116,388.466 476.672,388.880 476.672 C 389.293 476.672,389.632 476.334,389.632 475.920 C 389.632 475.429,389.928 475.282,390.484 475.495 C 391.057 475.715,391.215 475.626,390.966 475.223 C 390.762 474.894,390.840 474.624,391.138 474.624 C 392.202 474.624,392.462 474.482,393.546 473.312 C 394.150 472.660,394.784 472.267,394.954 472.437 C 395.125 472.607,395.264 472.478,395.264 472.149 C 395.264 471.821,395.558 471.552,395.918 471.552 C 396.278 471.552,396.953 471.149,397.418 470.656 C 398.837 469.152,399.748 468.527,400.061 468.840 C 400.226 469.004,400.505 468.760,400.683 468.297 C 400.860 467.835,401.384 467.447,401.847 467.435 C 402.309 467.424,403.486 466.733,404.461 465.899 C 405.436 465.066,406.588 464.380,407.021 464.376 C 407.716 464.369,407.718 464.310,407.040 463.872 C 406.361 463.433,406.363 463.375,407.055 463.368 C 407.486 463.364,408.170 462.899,408.576 462.336 C 408.982 461.773,409.609 461.312,409.969 461.312 C 410.329 461.312,410.624 461.082,410.624 460.800 C 410.624 460.518,410.979 460.288,411.413 460.288 C 411.848 460.288,412.712 459.799,413.333 459.202 C 413.955 458.605,415.155 457.685,416.000 457.156 C 416.845 456.628,417.306 456.194,417.024 456.192 C 416.742 456.190,417.269 455.727,418.193 455.163 C 419.118 454.599,420.007 453.794,420.168 453.373 C 420.329 452.952,420.782 452.608,421.174 452.608 C 421.566 452.608,422.836 451.686,423.997 450.560 C 425.158 449.434,426.425 448.512,426.814 448.512 C 427.202 448.512,427.520 448.051,427.520 447.488 C 427.520 446.902,427.861 446.464,428.318 446.464 C 428.757 446.464,429.012 446.291,428.884 446.080 C 428.756 445.869,428.973 445.399,429.366 445.036 C 429.759 444.673,430.080 444.595,430.080 444.864 C 430.080 445.132,430.850 444.623,431.791 443.732 C 432.733 442.841,433.448 442.040,433.382 441.953 C 433.171 441.676,435.737 439.296,436.247 439.296 C 436.516 439.296,436.736 439.101,436.736 438.862 C 436.736 438.141,438.608 436.219,438.964 436.575 C 439.147 436.757,439.296 436.695,439.297 436.437 C 439.297 436.179,439.873 435.299,440.577 434.480 C 441.280 433.662,441.856 433.160,441.856 433.365 C 441.856 433.943,443.153 432.491,443.533 431.488 C 443.719 430.995,444.126 430.592,444.437 430.592 C 445.446 430.592,446.464 429.291,446.464 428.002 C 446.464 427.704,446.678 427.592,446.941 427.754 C 447.383 428.028,448.146 427.256,448.312 426.368 C 448.352 426.157,448.416 425.811,448.456 425.600 C 448.495 425.389,448.751 425.562,449.024 425.984 C 449.441 426.629,449.522 426.598,449.528 425.788 C 449.532 425.258,449.955 424.451,450.468 423.996 C 450.980 423.541,451.549 422.765,451.731 422.272 C 451.914 421.779,452.396 421.376,452.803 421.376 C 453.697 421.376,453.591 420.007,452.437 416.653 C 451.979 415.322,451.160 412.557,450.617 410.509 C 449.560 406.527,449.186 405.330,448.491 403.712 C 448.249 403.149,447.716 401.651,447.306 400.384 C 446.324 397.349,445.041 393.979,443.847 391.302 C 443.315 390.108,442.880 389.019,442.880 388.882 C 442.880 388.407,439.711 381.659,436.620 375.552 C 413.414 329.703,369.674 291.757,322.048 276.154 C 313.940 273.497,314.091 273.905,319.650 269.710 C 339.455 254.763,354.803 230.975,359.174 208.453 C 359.591 206.303,360.155 203.392,360.426 201.984 C 362.409 191.685,362.253 179.697,359.951 165.632 C 351.593 114.559,302.085 76.354,248.832 79.883 " stroke="none" fill="#c4c4bc" fill-rule="evenodd"></path></g></svg>