<svg id="svg" xmlns="http://www.w3.org/2000/svg" xmlns:xlink="http://www.w3.org/1999/xlink" width="512" height="512" viewBox="0, 0, 512,512"><g id="svgg"><path id="path0" d="M99.328 131.371 C 99.328 131.817,99.042 132.086,98.693 131.970 C 97.998 131.738,97.367 132.300,96.384 134.029 C 95.578 135.447,95.457 157.184,96.256 157.184 C 96.538 157.184,96.768 157.414,96.768 157.696 C 96.768 158.340,98.414 160.005,99.768 160.729 C 100.909 161.340,413.115 161.552,412.504 160.942 C 412.318 160.756,412.683 160.349,413.315 160.039 C 415.843 158.796,416.254 156.767,416.255 145.529 C 416.256 134.217,415.820 132.257,413.172 131.674 C 412.756 131.582,412.339 131.294,412.245 131.034 C 411.906 130.091,99.328 130.428,99.328 131.371 M98.901 241.399 C 98.244 241.761,97.437 242.361,97.109 242.732 C 96.723 243.168,96.873 243.143,97.531 242.663 C 98.214 242.165,98.088 242.481,97.147 243.623 L 95.744 245.327 95.744 256.233 C 95.744 265.266,95.875 267.247,96.506 267.771 C 96.926 268.119,97.159 268.582,97.024 268.800 C 96.787 269.183,98.281 270.722,98.639 270.464 C 99.155 270.091,100.366 270.411,100.096 270.848 C 99.885 271.189,151.862 271.360,255.635 271.360 C 422.043 271.360,413.670 271.476,415.064 269.152 C 415.265 268.817,414.984 268.890,414.440 269.312 C 413.871 269.754,414.047 269.356,414.853 268.377 L 416.256 266.673 416.256 255.861 L 416.256 245.048 414.848 243.504 C 414.045 242.623,413.880 242.281,414.464 242.708 C 415.411 243.400,415.435 243.388,414.785 242.560 C 414.399 242.067,413.521 241.664,412.835 241.664 C 412.134 241.664,411.726 241.440,411.904 241.152 C 412.424 240.310,100.430 240.556,98.901 241.399 M99.496 351.058 C 99.682 351.244,99.317 351.651,98.685 351.961 C 96.148 353.209,95.746 355.218,95.745 366.645 L 95.744 377.194 97.012 378.421 C 97.709 379.096,98.745 380.051,99.316 380.544 C 100.842 381.864,412.672 381.949,412.672 380.629 C 412.672 380.183,412.958 379.914,413.307 380.030 C 414.002 380.262,414.633 379.700,415.616 377.971 C 416.369 376.646,416.546 354.816,415.804 354.816 C 415.555 354.816,415.234 354.367,415.090 353.818 C 414.947 353.269,414.056 352.348,413.111 351.772 L 411.392 350.724 255.275 350.722 C 169.410 350.721,99.310 350.872,99.496 351.058 " stroke="none" fill="#dcdcdc" fill-rule="evenodd"></path><path id="path1" d="M97.792 379.886 C 97.792 380.177,98.118 380.416,98.517 380.416 C 98.916 380.416,99.359 380.704,99.501 381.056 C 99.696 381.538,99.769 381.543,99.800 381.074 C 99.822 380.732,99.379 380.205,98.816 379.904 C 98.122 379.532,97.792 379.527,97.792 379.886 " stroke="none" fill="#e0dcdc" fill-rule="evenodd"></path></g></svg>