<svg id="svg" xmlns="http://www.w3.org/2000/svg" xmlns:xlink="http://www.w3.org/1999/xlink" width="512" height="512" viewBox="0, 0, 512,512"><g id="svgg"><path id="path0" d="M0.000 126.464 C 0.000 210.432,0.172 252.928,0.512 252.928 C 0.809 252.928,1.025 251.263,1.026 248.960 C 1.037 227.279,6.454 196.909,14.518 173.312 C 35.310 112.471,76.778 63.389,134.912 30.815 C 148.525 23.187,171.234 14.020,187.253 9.686 C 203.774 5.217,216.130 2.901,231.040 1.478 C 234.630 1.136,237.568 0.663,237.568 0.428 C 237.568 0.192,184.115 0.000,118.784 0.000 L 0.000 0.000 0.000 126.464 M274.944 0.435 C 274.944 0.674,277.997 1.142,281.728 1.474 C 285.459 1.807,289.779 2.296,291.328 2.562 C 292.877 2.828,297.139 3.529,300.800 4.120 C 318.504 6.977,337.806 12.738,356.846 20.847 C 415.939 46.016,465.794 95.558,490.435 153.600 C 491.929 157.120,493.449 160.691,493.812 161.536 C 496.867 168.639,501.824 184.249,504.381 194.816 C 504.926 197.069,505.709 200.294,506.122 201.984 C 506.534 203.674,507.331 207.936,507.893 211.456 C 508.454 214.976,509.140 219.238,509.415 220.928 C 509.691 222.618,510.194 227.168,510.534 231.040 C 510.873 234.912,511.341 238.080,511.575 238.080 C 511.809 238.080,512.000 184.512,512.000 119.040 L 512.000 0.000 393.472 0.000 C 328.282 0.000,274.944 0.196,274.944 0.435 M124.581 149.348 C 123.968 149.468,123.222 149.860,122.924 150.219 C 122.492 150.739,122.166 213.740,122.361 258.889 C 122.372 261.482,123.563 261.377,128.160 258.377 C 130.466 256.872,135.002 253.963,138.240 251.911 C 141.478 249.859,146.478 246.656,149.351 244.794 C 152.223 242.932,157.407 239.587,160.871 237.361 C 164.334 235.135,169.357 231.887,172.032 230.142 C 186.079 220.983,191.693 217.564,192.446 217.709 C 193.212 217.857,193.301 225.433,193.536 310.620 C 193.677 361.633,193.984 403.563,194.219 403.797 C 195.238 404.815,304.668 404.298,305.418 403.272 C 306.080 402.367,306.048 154.043,305.386 150.732 C 305.197 149.788,304.689 149.615,301.244 149.324 C 297.004 148.966,126.427 148.989,124.581 149.348 M329.318 150.118 C 328.329 151.108,328.438 260.262,329.429 261.084 C 330.275 261.786,388.925 261.668,390.016 260.962 C 390.931 260.369,390.956 151.033,390.042 150.118 C 389.154 149.231,330.206 149.231,329.318 150.118 M0.000 385.536 L 0.000 512.000 119.552 512.000 C 185.398 512.000,239.104 511.803,239.104 511.562 C 239.104 511.321,235.936 510.842,232.064 510.498 C 222.721 509.666,209.939 507.780,204.032 506.362 C 202.906 506.092,199.910 505.406,197.376 504.837 C 191.896 503.608,188.305 502.638,181.760 500.619 C 177.262 499.231,175.068 498.501,168.192 496.105 C 165.123 495.036,157.861 492.095,154.524 490.570 C 153.202 489.966,151.980 489.472,151.808 489.472 C 150.871 489.472,133.214 480.281,126.356 476.223 C 52.097 432.283,4.914 353.539,1.226 267.392 C 1.030 262.816,0.674 259.072,0.435 259.072 C 0.196 259.072,0.000 315.981,0.000 385.536 M510.514 280.960 C 510.178 284.832,509.690 289.267,509.429 290.816 C 509.168 292.365,508.583 296.051,508.128 299.008 C 505.253 317.713,499.142 338.013,489.711 360.192 C 466.049 415.839,413.854 467.328,357.120 490.990 C 354.304 492.164,351.539 493.338,350.976 493.598 C 340.676 498.351,316.012 505.283,300.032 507.916 C 296.512 508.496,292.365 509.182,290.816 509.440 C 289.267 509.698,284.717 510.188,280.704 510.528 C 276.691 510.868,273.408 511.338,273.408 511.573 C 273.408 511.808,327.091 512.000,392.704 512.000 L 512.000 512.000 512.000 392.960 C 512.000 327.397,511.803 273.920,511.562 273.920 C 511.321 273.920,510.850 277.088,510.514 280.960 " stroke="none" fill="#f9fbfb" fill-rule="evenodd"></path><path id="path1" d="M237.568 0.428 C 237.568 0.663,234.630 1.136,231.040 1.478 C 198.278 4.604,161.847 15.722,134.912 30.815 C 76.778 63.389,35.310 112.471,14.518 173.312 C 6.454 196.909,1.037 227.279,1.026 248.960 C 1.025 251.263,0.809 252.928,0.512 252.928 C 0.228 252.928,0.000 254.293,0.000 256.000 C 0.000 257.690,0.196 259.072,0.435 259.072 C 0.674 259.072,1.030 262.816,1.226 267.392 C 4.006 332.336,30.796 392.503,77.343 438.339 C 93.990 454.731,114.221 469.846,133.632 480.392 C 137.775 482.643,151.445 489.472,151.808 489.472 C 151.980 489.472,153.202 489.966,154.524 490.570 C 157.861 492.095,165.123 495.036,168.192 496.105 C 175.068 498.501,177.262 499.231,181.760 500.619 C 188.305 502.638,191.896 503.608,197.376 504.837 C 199.910 505.406,202.906 506.092,204.032 506.362 C 209.939 507.780,222.721 509.666,232.064 510.498 C 235.936 510.842,239.104 511.321,239.104 511.562 C 239.104 511.803,246.822 512.000,256.256 512.000 C 265.690 512.000,273.408 511.808,273.408 511.573 C 273.408 511.338,276.691 510.868,280.704 510.528 C 284.717 510.188,289.267 509.698,290.816 509.440 C 292.365 509.182,296.512 508.496,300.032 507.916 C 316.012 505.283,340.676 498.351,350.976 493.598 C 351.539 493.338,354.304 492.164,357.120 490.990 C 404.425 471.261,447.449 433.667,475.311 387.717 C 479.774 380.357,487.052 366.446,489.711 360.192 C 499.142 338.013,505.253 317.713,508.128 299.008 C 508.583 296.051,509.168 292.365,509.429 290.816 C 509.690 289.267,510.178 284.832,510.514 280.960 C 510.850 277.088,511.321 273.920,511.562 273.920 C 511.803 273.920,512.000 265.856,512.000 256.000 C 512.000 246.144,511.809 238.080,511.575 238.080 C 511.341 238.080,510.873 234.912,510.534 231.040 C 510.194 227.168,509.691 222.618,509.415 220.928 C 509.140 219.238,508.454 214.976,507.893 211.456 C 507.331 207.936,506.534 203.674,506.122 201.984 C 505.709 200.294,504.926 197.069,504.381 194.816 C 501.824 184.249,496.867 168.639,493.812 161.536 C 493.449 160.691,491.929 157.120,490.435 153.600 C 465.794 95.558,415.939 46.016,356.846 20.847 C 337.806 12.738,318.504 6.977,300.800 4.120 C 297.139 3.529,292.877 2.828,291.328 2.562 C 289.779 2.296,285.459 1.807,281.728 1.474 C 277.997 1.142,274.944 0.674,274.944 0.435 C 274.944 0.196,266.534 0.000,256.256 0.000 C 245.978 0.000,237.568 0.192,237.568 0.428 M301.244 149.324 C 304.689 149.615,305.197 149.788,305.386 150.732 C 306.048 154.043,306.080 402.367,305.418 403.272 C 304.668 404.298,195.238 404.815,194.219 403.797 C 193.984 403.563,193.677 361.633,193.536 310.620 C 193.301 225.433,193.212 217.857,192.446 217.709 C 191.693 217.564,186.079 220.983,172.032 230.142 C 169.357 231.887,164.334 235.135,160.871 237.361 C 157.407 239.587,152.223 242.932,149.351 244.794 C 146.478 246.656,141.478 249.859,138.240 251.911 C 135.002 253.963,130.466 256.872,128.160 258.377 C 123.563 261.377,122.372 261.482,122.361 258.889 C 122.166 213.740,122.492 150.739,122.924 150.219 C 123.222 149.860,123.968 149.468,124.581 149.348 C 126.427 148.989,297.004 148.966,301.244 149.324 M390.042 150.118 C 390.956 151.033,390.931 260.369,390.016 260.962 C 388.925 261.668,330.275 261.786,329.429 261.084 C 328.438 260.262,328.329 151.108,329.318 150.118 C 330.206 149.231,389.154 149.231,390.042 150.118 " stroke="none" fill="#339b9b" fill-rule="evenodd"></path></g></svg>